<?xml version="1.0" encoding="UTF-8" standalone="no"?><svg xmlns="http://www.w3.org/2000/svg" xmlns:xlink="http://www.w3.org/1999/xlink" contentScriptType="application/ecmascript" contentStyleType="text/css" height="418px" preserveAspectRatio="none" style="width:987px;height:418px;" version="1.1" viewBox="0 0 987 418" width="987px" zoomAndPan="magnify"><defs><filter height="300%" id="f4r90ttt2qshc" width="300%" x="-1" y="-1"><feGaussianBlur result="blurOut" stdDeviation="2.0"/><feColorMatrix in="blurOut" result="blurOut2" type="matrix" values="0 0 0 0 0 0 0 0 0 0 0 0 0 0 0 0 0 0 .4 0"/><feOffset dx="4.0" dy="4.0" in="blurOut2" result="blurOut3"/><feBlend in="SourceGraphic" in2="blurOut3" mode="normal"/></filter></defs><g><!--MD5=[1a1c5f78485d64780068083f0b456f6b]
entity appserver--><rect fill="#FEFECE" filter="url(#f4r90ttt2qshc)" height="46.2969" style="stroke: #A80036; stroke-width: 1.5;" width="109" x="359" y="115"/><rect fill="#FEFECE" height="10" style="stroke: #A80036; stroke-width: 1.5;" width="15" x="448" y="120"/><rect fill="#FEFECE" height="2" style="stroke: #A80036; stroke-width: 1.5;" width="4" x="446" y="122"/><rect fill="#FEFECE" height="2" style="stroke: #A80036; stroke-width: 1.5;" width="4" x="446" y="126"/><text fill="#000000" font-family="sans-serif" font-size="14" lengthAdjust="spacingAndGlyphs" textLength="69" x="374" y="147.9951">appserver</text><!--MD5=[a5cf8d290db7baf3f916435f366327b7]
entity cache-invalidator--><rect fill="#FEFECE" filter="url(#f4r90ttt2qshc)" height="46.2969" style="stroke: #A80036; stroke-width: 1.5;" width="156" x="542.5" y="238"/><rect fill="#FEFECE" height="10" style="stroke: #A80036; stroke-width: 1.5;" width="15" x="678.5" y="243"/><rect fill="#FEFECE" height="2" style="stroke: #A80036; stroke-width: 1.5;" width="4" x="676.5" y="245"/><rect fill="#FEFECE" height="2" style="stroke: #A80036; stroke-width: 1.5;" width="4" x="676.5" y="249"/><text fill="#000000" font-family="sans-serif" font-size="14" lengthAdjust="spacingAndGlyphs" textLength="116" x="557.5" y="270.9951">cache-invalidator</text><!--MD5=[47c6c16b7923c5c98d772847e5dd1ea6]
entity elasticsearch--><rect fill="#FEFECE" filter="url(#f4r90ttt2qshc)" height="46.2969" style="stroke: #A80036; stroke-width: 1.5;" width="131" x="6" y="238"/><rect fill="#FEFECE" height="10" style="stroke: #A80036; stroke-width: 1.5;" width="15" x="117" y="243"/><rect fill="#FEFECE" height="2" style="stroke: #A80036; stroke-width: 1.5;" width="4" x="115" y="245"/><rect fill="#FEFECE" height="2" style="stroke: #A80036; stroke-width: 1.5;" width="4" x="115" y="249"/><text fill="#000000" font-family="sans-serif" font-size="14" lengthAdjust="spacingAndGlyphs" textLength="91" x="21" y="270.9951">elasticsearch</text><!--MD5=[b1e3d2dcb3697de9e6328d1cb436cbc4]
entity frontend--><rect fill="#FEFECE" filter="url(#f4r90ttt2qshc)" height="46.2969" style="stroke: #A80036; stroke-width: 1.5;" width="99" x="364" y="8"/><rect fill="#FEFECE" height="10" style="stroke: #A80036; stroke-width: 1.5;" width="15" x="443" y="13"/><rect fill="#FEFECE" height="2" style="stroke: #A80036; stroke-width: 1.5;" width="4" x="441" y="15"/><rect fill="#FEFECE" height="2" style="stroke: #A80036; stroke-width: 1.5;" width="4" x="441" y="19"/><text fill="#000000" font-family="sans-serif" font-size="14" lengthAdjust="spacingAndGlyphs" textLength="59" x="379" y="40.9951">frontend</text><!--MD5=[bce8ed80e0b7aad8739b0649b735fd39]
entity neo4j--><rect fill="#FEFECE" filter="url(#f4r90ttt2qshc)" height="46.2969" style="stroke: #A80036; stroke-width: 1.5;" width="79" x="257" y="361"/><rect fill="#FEFECE" height="10" style="stroke: #A80036; stroke-width: 1.5;" width="15" x="316" y="366"/><rect fill="#FEFECE" height="2" style="stroke: #A80036; stroke-width: 1.5;" width="4" x="314" y="368"/><rect fill="#FEFECE" height="2" style="stroke: #A80036; stroke-width: 1.5;" width="4" x="314" y="372"/><text fill="#000000" font-family="sans-serif" font-size="14" lengthAdjust="spacingAndGlyphs" textLength="39" x="272" y="393.9951">neo4j</text><!--MD5=[eab41f295d15cdc3e5478fdf1b88de5e]
entity pdfparser--><rect fill="#FEFECE" filter="url(#f4r90ttt2qshc)" height="46.2969" style="stroke: #A80036; stroke-width: 1.5;" width="106" x="733.5" y="238"/><rect fill="#FEFECE" height="10" style="stroke: #A80036; stroke-width: 1.5;" width="15" x="819.5" y="243"/><rect fill="#FEFECE" height="2" style="stroke: #A80036; stroke-width: 1.5;" width="4" x="817.5" y="245"/><rect fill="#FEFECE" height="2" style="stroke: #A80036; stroke-width: 1.5;" width="4" x="817.5" y="249"/><text fill="#000000" font-family="sans-serif" font-size="14" lengthAdjust="spacingAndGlyphs" textLength="66" x="748.5" y="270.9951">pdfparser</text><!--MD5=[0e1fecc31e3549f2a1667c6349b56d9e]
entity postgres--><rect fill="#FEFECE" filter="url(#f4r90ttt2qshc)" height="46.2969" style="stroke: #A80036; stroke-width: 1.5;" width="102" x="874.5" y="238"/><rect fill="#FEFECE" height="10" style="stroke: #A80036; stroke-width: 1.5;" width="15" x="956.5" y="243"/><rect fill="#FEFECE" height="2" style="stroke: #A80036; stroke-width: 1.5;" width="4" x="954.5" y="245"/><rect fill="#FEFECE" height="2" style="stroke: #A80036; stroke-width: 1.5;" width="4" x="954.5" y="249"/><text fill="#000000" font-family="sans-serif" font-size="14" lengthAdjust="spacingAndGlyphs" textLength="62" x="889.5" y="270.9951">postgres</text><!--MD5=[de5dc476b5cd49b5a92d294ad2af7d70]
entity redis--><rect fill="#FEFECE" filter="url(#f4r90ttt2qshc)" height="46.2969" style="stroke: #A80036; stroke-width: 1.5;" width="74" x="493.5" y="361"/><rect fill="#FEFECE" height="10" style="stroke: #A80036; stroke-width: 1.5;" width="15" x="547.5" y="366"/><rect fill="#FEFECE" height="2" style="stroke: #A80036; stroke-width: 1.5;" width="4" x="545.5" y="368"/><rect fill="#FEFECE" height="2" style="stroke: #A80036; stroke-width: 1.5;" width="4" x="545.5" y="372"/><text fill="#000000" font-family="sans-serif" font-size="14" lengthAdjust="spacingAndGlyphs" textLength="34" x="508.5" y="393.9951">redis</text><!--MD5=[85cf93ae52b7758dc9a742bfaeac17d8]
entity statistical-enrichment--><rect fill="#FEFECE" filter="url(#f4r90ttt2qshc)" height="46.2969" style="stroke: #A80036; stroke-width: 1.5;" width="188" x="319.5" y="238"/><rect fill="#FEFECE" height="10" style="stroke: #A80036; stroke-width: 1.5;" width="15" x="487.5" y="243"/><rect fill="#FEFECE" height="2" style="stroke: #A80036; stroke-width: 1.5;" width="4" x="485.5" y="245"/><rect fill="#FEFECE" height="2" style="stroke: #A80036; stroke-width: 1.5;" width="4" x="485.5" y="249"/><text fill="#000000" font-family="sans-serif" font-size="14" lengthAdjust="spacingAndGlyphs" textLength="148" x="334.5" y="270.9951">statistical-enrichment</text><!--MD5=[f2016b988fa4a3e7d317511389afd17b]
link appserver to pdfparser--><path d="M468.1369,156.017 C537.5966,178.9219 657.0182,218.3022 728.1886,241.7713 " fill="none" id="appserver-&gt;pdfparser" style="stroke: #A80036; stroke-width: 1.0;"/><polygon fill="#A80036" points="733.2282,243.4331,725.9336,236.8157,728.4797,241.8672,723.4282,244.4133,733.2282,243.4331" style="stroke: #A80036; stroke-width: 1.0;"/><!--MD5=[8c96d731fc2d1cee8ce9fcb905458adb]
link appserver to statistical-enrichment--><path d="M413.5,161.1354 C413.5,181.4937 413.5,211.1907 413.5,232.908 " fill="none" id="appserver-&gt;statistical-enrichment" style="stroke: #A80036; stroke-width: 1.0;"/><polygon fill="#A80036" points="413.5,237.9684,417.5,228.9684,413.5,232.9684,409.5,228.9684,413.5,237.9684" style="stroke: #A80036; stroke-width: 1.0;"/><!--MD5=[1e71561c9b2d8db10f3d0b876e5c0683]
link frontend to appserver--><path d="M413.5,54.2174 C413.5,70.4823 413.5,92.3151 413.5,109.6155 " fill="none" id="frontend-&gt;appserver" style="stroke: #A80036; stroke-width: 1.0;"/><polygon fill="#A80036" points="413.5,114.8279,417.5,105.8279,413.5,109.8279,409.5,105.8279,413.5,114.8279" style="stroke: #A80036; stroke-width: 1.0;"/><!--MD5=[6829e309282c9c889a128c95efac3f88]
link appserver to elasticsearch--><path d="M358.927,141.3527 C281.1797,147.1153 143.6035,161.2692 104.5,191 C91.0474,201.2282 82.8477,218.304 77.9867,233.0294 " fill="none" id="appserver-&gt;elasticsearch" style="stroke: #A80036; stroke-width: 1.0; stroke-dasharray: 7.0,7.0;"/><polygon fill="#A80036" points="76.4634,237.9199,82.959,230.5167,77.9504,233.1461,75.321,228.1375,76.4634,237.9199" style="stroke: #A80036; stroke-width: 1.0;"/><text fill="#000000" font-family="sans-serif" font-size="13" lengthAdjust="spacingAndGlyphs" textLength="75" x="105.5" y="204.0669">depends on</text><!--MD5=[2c213b0e9cf1e33e5d8adee82e77eb14]
link appserver to neo4j--><path d="M358.7917,150.4341 C313.9789,163.818 253.4192,189.9811 224.5,238 C200.4292,277.9683 237.3459,327.1035 266.6016,356.9613 " fill="none" id="appserver-&gt;neo4j" style="stroke: #A80036; stroke-width: 1.0; stroke-dasharray: 7.0,7.0;"/><polygon fill="#A80036" points="270.4896,360.8638,266.9713,351.6648,266.9607,357.3216,261.3039,357.311,270.4896,360.8638" style="stroke: #A80036; stroke-width: 1.0;"/><text fill="#000000" font-family="sans-serif" font-size="13" lengthAdjust="spacingAndGlyphs" textLength="75" x="225.5" y="265.5669">depends on</text><!--MD5=[6b022255e4a714146cec30425f07a0c8]
link appserver to postgres--><path d="M468.2978,148.4201 C552.592,164.8799 718.8623,199.0568 857.5,238 C861.4669,239.1143 865.5434,240.3244 869.635,241.587 " fill="none" id="appserver-&gt;postgres" style="stroke: #A80036; stroke-width: 1.0; stroke-dasharray: 7.0,7.0;"/><polygon fill="#A80036" points="874.4394,243.0907,867.0451,236.585,869.6677,241.5972,864.6555,244.2197,874.4394,243.0907" style="stroke: #A80036; stroke-width: 1.0;"/><text fill="#000000" font-family="sans-serif" font-size="13" lengthAdjust="spacingAndGlyphs" textLength="75" x="737.5" y="204.0669">depends on</text><!--MD5=[11b292e9f601a927ebbff414ca7f0e02]
link cache-invalidator to neo4j--><path d="M578.2344,284.0834 C541.5084,304.1185 493.8134,330.0726 491.5,331 C441.6378,350.9895 381.6587,366.028 341.505,374.8865 " fill="none" id="cache-invalidator-&gt;neo4j" style="stroke: #A80036; stroke-width: 1.0; stroke-dasharray: 7.0,7.0;"/><polygon fill="#A80036" points="336.2191,376.0422,345.8658,378.0272,341.1037,374.9741,344.1568,370.2119,336.2191,376.0422" style="stroke: #A80036; stroke-width: 1.0;"/><text fill="#000000" font-family="sans-serif" font-size="13" lengthAdjust="spacingAndGlyphs" textLength="75" x="522.5" y="327.0669">depends on</text><!--MD5=[ce0447b25eee4dc7785833027a5ba3dc]
link cache-invalidator to redis--><path d="M621.0141,284.0748 C620.3107,298.5788 617.442,317.1066 608.5,331 C599.6636,344.7294 585.8748,355.805 572.3332,364.2109 " fill="none" id="cache-invalidator-&gt;redis" style="stroke: #A80036; stroke-width: 1.0; stroke-dasharray: 7.0,7.0;"/><polygon fill="#A80036" points="567.7578,366.9593,577.5326,365.7537,572.0439,364.3846,573.4131,358.8959,567.7578,366.9593" style="stroke: #A80036; stroke-width: 1.0;"/><text fill="#000000" font-family="sans-serif" font-size="13" lengthAdjust="spacingAndGlyphs" textLength="75" x="617.5" y="327.0669">depends on</text><!--MD5=[b612017463debff9578045eef886aec6]
link statistical-enrichment to neo4j--><path d="M327.477,284.1035 C314.019,291.4918 301.8298,301.215 293.5,314 C285.5754,326.1631 285.6915,342.1988 288.0736,355.8529 " fill="none" id="statistical-enrichment-&gt;neo4j" style="stroke: #A80036; stroke-width: 1.0; stroke-dasharray: 7.0,7.0;"/><polygon fill="#A80036" points="289.043,360.764,291.2241,351.1597,288.0746,355.8587,283.3756,352.7092,289.043,360.764" style="stroke: #A80036; stroke-width: 1.0;"/><text fill="#000000" font-family="sans-serif" font-size="13" lengthAdjust="spacingAndGlyphs" textLength="75" x="294.5" y="327.0669">depends on</text><!--MD5=[e1ae5a4934660f259385e9f9d487ec50]
link statistical-enrichment to redis--><path d="M406.043,284.236 C402.8413,298.8043 401.6022,317.3432 410.5,331 C427.6464,357.3173 461.1462,370.661 488.4027,377.3715 " fill="none" id="statistical-enrichment-&gt;redis" style="stroke: #A80036; stroke-width: 1.0; stroke-dasharray: 7.0,7.0;"/><polygon fill="#A80036" points="493.4141,378.5489,485.5677,372.5963,488.5467,377.4052,483.7377,380.3842,493.4141,378.5489" style="stroke: #A80036; stroke-width: 1.0;"/><text fill="#000000" font-family="sans-serif" font-size="13" lengthAdjust="spacingAndGlyphs" textLength="75" x="411.5" y="327.0669">depends on</text><!--MD5=[01d516d36d047fef02c073431f1a4bf5]
@startuml
skinparam componentStyle uml2
[appserver]
[cache-invalidator]
[elasticsearch]
[frontend]
[neo4j]
[pdfparser]
[postgres]
[redis]
[statistical-enrichment]
[appserver] - -> [pdfparser]
[appserver] - -> [statistical-enrichment]
[frontend] - -> [appserver]
[appserver] ..> [elasticsearch] : depends on
[appserver] ..> [neo4j] : depends on
[appserver] ..> [postgres] : depends on
[cache-invalidator] ..> [neo4j] : depends on
[cache-invalidator] ..> [redis] : depends on
[statistical-enrichment] ..> [neo4j] : depends on
[statistical-enrichment] ..> [redis] : depends on

@enduml

PlantUML version 1.2020.06(Sun Apr 05 12:38:32 GMT 2020)
(GPL source distribution)
Java Runtime: OpenJDK Runtime Environment
JVM: OpenJDK 64-Bit Server VM
Java Version: 14-ea+33
Operating System: Linux
Default Encoding: UTF-8
Language: en
Country: US
--></g></svg>