<?xml version="1.0" encoding="UTF-8" standalone="no"?><svg xmlns="http://www.w3.org/2000/svg" xmlns:xlink="http://www.w3.org/1999/xlink" contentScriptType="application/ecmascript" contentStyleType="text/css" height="418px" preserveAspectRatio="none" style="width:1134px;height:418px;" version="1.1" viewBox="0 0 1134 418" width="1134px" zoomAndPan="magnify"><defs><filter height="300%" id="f1ctotnqig7mly" width="300%" x="-1" y="-1"><feGaussianBlur result="blurOut" stdDeviation="2.0"/><feColorMatrix in="blurOut" result="blurOut2" type="matrix" values="0 0 0 0 0 0 0 0 0 0 0 0 0 0 0 0 0 0 .4 0"/><feOffset dx="4.0" dy="4.0" in="blurOut2" result="blurOut3"/><feBlend in="SourceGraphic" in2="blurOut3" mode="normal"/></filter></defs><g><!--MD5=[1a1c5f78485d64780068083f0b456f6b]
entity appserver--><rect fill="#FEFECE" filter="url(#f1ctotnqig7mly)" height="46.2969" style="stroke: #A80036; stroke-width: 1.5;" width="109" x="625" y="115"/><rect fill="#FEFECE" height="10" style="stroke: #A80036; stroke-width: 1.5;" width="15" x="714" y="120"/><rect fill="#FEFECE" height="2" style="stroke: #A80036; stroke-width: 1.5;" width="4" x="712" y="122"/><rect fill="#FEFECE" height="2" style="stroke: #A80036; stroke-width: 1.5;" width="4" x="712" y="126"/><text fill="#000000" font-family="sans-serif" font-size="14" lengthAdjust="spacingAndGlyphs" textLength="69" x="640" y="147.9951">appserver</text><!--MD5=[a5cf8d290db7baf3f916435f366327b7]
entity cache-invalidator--><rect fill="#FEFECE" filter="url(#f1ctotnqig7mly)" height="46.2969" style="stroke: #A80036; stroke-width: 1.5;" width="156" x="542.5" y="238"/><rect fill="#FEFECE" height="10" style="stroke: #A80036; stroke-width: 1.5;" width="15" x="678.5" y="243"/><rect fill="#FEFECE" height="2" style="stroke: #A80036; stroke-width: 1.5;" width="4" x="676.5" y="245"/><rect fill="#FEFECE" height="2" style="stroke: #A80036; stroke-width: 1.5;" width="4" x="676.5" y="249"/><text fill="#000000" font-family="sans-serif" font-size="14" lengthAdjust="spacingAndGlyphs" textLength="116" x="557.5" y="270.9951">cache-invalidator</text><!--MD5=[47c6c16b7923c5c98d772847e5dd1ea6]
entity elasticsearch--><rect fill="#FEFECE" filter="url(#f1ctotnqig7mly)" height="46.2969" style="stroke: #A80036; stroke-width: 1.5;" width="131" x="6" y="238"/><rect fill="#FEFECE" height="10" style="stroke: #A80036; stroke-width: 1.5;" width="15" x="117" y="243"/><rect fill="#FEFECE" height="2" style="stroke: #A80036; stroke-width: 1.5;" width="4" x="115" y="245"/><rect fill="#FEFECE" height="2" style="stroke: #A80036; stroke-width: 1.5;" width="4" x="115" y="249"/><text fill="#000000" font-family="sans-serif" font-size="14" lengthAdjust="spacingAndGlyphs" textLength="91" x="21" y="270.9951">elasticsearch</text><!--MD5=[bce8ed80e0b7aad8739b0649b735fd39]
entity neo4j--><rect fill="#FEFECE" filter="url(#f1ctotnqig7mly)" height="46.2969" style="stroke: #A80036; stroke-width: 1.5;" width="79" x="267" y="361"/><rect fill="#FEFECE" height="10" style="stroke: #A80036; stroke-width: 1.5;" width="15" x="326" y="366"/><rect fill="#FEFECE" height="2" style="stroke: #A80036; stroke-width: 1.5;" width="4" x="324" y="368"/><rect fill="#FEFECE" height="2" style="stroke: #A80036; stroke-width: 1.5;" width="4" x="324" y="372"/><text fill="#000000" font-family="sans-serif" font-size="14" lengthAdjust="spacingAndGlyphs" textLength="39" x="282" y="393.9951">neo4j</text><!--MD5=[eab41f295d15cdc3e5478fdf1b88de5e]
entity pdfparser--><rect fill="#FEFECE" filter="url(#f1ctotnqig7mly)" height="46.2969" style="stroke: #A80036; stroke-width: 1.5;" width="106" x="880.5" y="238"/><rect fill="#FEFECE" height="10" style="stroke: #A80036; stroke-width: 1.5;" width="15" x="966.5" y="243"/><rect fill="#FEFECE" height="2" style="stroke: #A80036; stroke-width: 1.5;" width="4" x="964.5" y="245"/><rect fill="#FEFECE" height="2" style="stroke: #A80036; stroke-width: 1.5;" width="4" x="964.5" y="249"/><text fill="#000000" font-family="sans-serif" font-size="14" lengthAdjust="spacingAndGlyphs" textLength="66" x="895.5" y="270.9951">pdfparser</text><!--MD5=[0e1fecc31e3549f2a1667c6349b56d9e]
entity postgres--><rect fill="#FEFECE" filter="url(#f1ctotnqig7mly)" height="46.2969" style="stroke: #A80036; stroke-width: 1.5;" width="102" x="1021.5" y="238"/><rect fill="#FEFECE" height="10" style="stroke: #A80036; stroke-width: 1.5;" width="15" x="1103.5" y="243"/><rect fill="#FEFECE" height="2" style="stroke: #A80036; stroke-width: 1.5;" width="4" x="1101.5" y="245"/><rect fill="#FEFECE" height="2" style="stroke: #A80036; stroke-width: 1.5;" width="4" x="1101.5" y="249"/><text fill="#000000" font-family="sans-serif" font-size="14" lengthAdjust="spacingAndGlyphs" textLength="62" x="1036.5" y="270.9951">postgres</text><!--MD5=[de5dc476b5cd49b5a92d294ad2af7d70]
entity redis--><rect fill="#FEFECE" filter="url(#f1ctotnqig7mly)" height="46.2969" style="stroke: #A80036; stroke-width: 1.5;" width="74" x="620.5" y="361"/><rect fill="#FEFECE" height="10" style="stroke: #A80036; stroke-width: 1.5;" width="15" x="674.5" y="366"/><rect fill="#FEFECE" height="2" style="stroke: #A80036; stroke-width: 1.5;" width="4" x="672.5" y="368"/><rect fill="#FEFECE" height="2" style="stroke: #A80036; stroke-width: 1.5;" width="4" x="672.5" y="372"/><text fill="#000000" font-family="sans-serif" font-size="14" lengthAdjust="spacingAndGlyphs" textLength="34" x="635.5" y="393.9951">redis</text><!--MD5=[85cf93ae52b7758dc9a742bfaeac17d8]
entity statistical-enrichment--><rect fill="#FEFECE" filter="url(#f1ctotnqig7mly)" height="46.2969" style="stroke: #A80036; stroke-width: 1.5;" width="188" x="319.5" y="238"/><rect fill="#FEFECE" height="10" style="stroke: #A80036; stroke-width: 1.5;" width="15" x="487.5" y="243"/><rect fill="#FEFECE" height="2" style="stroke: #A80036; stroke-width: 1.5;" width="4" x="485.5" y="245"/><rect fill="#FEFECE" height="2" style="stroke: #A80036; stroke-width: 1.5;" width="4" x="485.5" y="249"/><text fill="#000000" font-family="sans-serif" font-size="14" lengthAdjust="spacingAndGlyphs" textLength="148" x="334.5" y="270.9951">statistical-enrichment</text><!--MD5=[788ffb02e69a71dda3642c9a267eda8f]
entity webserver--><rect fill="#FEFECE" filter="url(#f1ctotnqig7mly)" height="46.2969" style="stroke: #A80036; stroke-width: 1.5;" width="112" x="623.5" y="8"/><rect fill="#FEFECE" height="10" style="stroke: #A80036; stroke-width: 1.5;" width="15" x="715.5" y="13"/><rect fill="#FEFECE" height="2" style="stroke: #A80036; stroke-width: 1.5;" width="4" x="713.5" y="15"/><rect fill="#FEFECE" height="2" style="stroke: #A80036; stroke-width: 1.5;" width="4" x="713.5" y="19"/><text fill="#000000" font-family="sans-serif" font-size="14" lengthAdjust="spacingAndGlyphs" textLength="72" x="638.5" y="40.9951">webserver</text><!--MD5=[f2016b988fa4a3e7d317511389afd17b]
link appserver to pdfparser--><path d="M730.6287,161.1039 C750.6246,170.2595 773.7071,180.9767 794.5,191 C824.4103,205.4184 857.6354,222.1247 884.1002,235.5998 " fill="none" id="appserver-&gt;pdfparser" style="stroke: #A80036; stroke-width: 1.0;"/><polygon fill="#A80036" points="888.6235,237.9049,882.421,230.2545,884.1686,235.6346,878.7885,237.3823,888.6235,237.9049" style="stroke: #A80036; stroke-width: 1.0;"/><!--MD5=[8c96d731fc2d1cee8ce9fcb905458adb]
link appserver to statistical-enrichment--><path d="M629.4674,161.1354 C583.4899,182.3957 515.4874,213.8404 468.1144,235.746 " fill="none" id="appserver-&gt;statistical-enrichment" style="stroke: #A80036; stroke-width: 1.0;"/><polygon fill="#A80036" points="463.3082,237.9684,473.156,237.8216,467.8465,235.8698,469.7983,230.5603,463.3082,237.9684" style="stroke: #A80036; stroke-width: 1.0;"/><!--MD5=[c57e64e69698826f1e00c638e159f192]
link webserver to appserver--><path d="M679.5,54.2174 C679.5,70.4823 679.5,92.3151 679.5,109.6155 " fill="none" id="webserver-&gt;appserver" style="stroke: #A80036; stroke-width: 1.0;"/><polygon fill="#A80036" points="679.5,114.8279,683.5,105.8279,679.5,109.8279,675.5,105.8279,679.5,114.8279" style="stroke: #A80036; stroke-width: 1.0;"/><!--MD5=[6829e309282c9c889a128c95efac3f88]
link appserver to elasticsearch--><path d="M624.6454,139.9819 C489.1481,145.308 146.5284,161.5573 104.5,191 C90.5602,200.7655 82.3357,218.007 77.5836,232.9344 " fill="none" id="appserver-&gt;elasticsearch" style="stroke: #A80036; stroke-width: 1.0; stroke-dasharray: 7.0,7.0;"/><polygon fill="#A80036" points="76.1019,237.8939,82.5108,230.4156,77.5332,233.1031,74.8456,228.1255,76.1019,237.8939" style="stroke: #A80036; stroke-width: 1.0;"/><text fill="#000000" font-family="sans-serif" font-size="13" lengthAdjust="spacingAndGlyphs" textLength="75" x="105.5" y="204.0669">depends on</text><!--MD5=[2c213b0e9cf1e33e5d8adee82e77eb14]
link appserver to neo4j--><path d="M624.8392,141.6921 C515.1077,150.3619 274.2309,176.1522 224.5,238 C194.0403,275.8811 238.3496,326.561 272.7528,357.1613 " fill="none" id="appserver-&gt;neo4j" style="stroke: #A80036; stroke-width: 1.0; stroke-dasharray: 7.0,7.0;"/><polygon fill="#A80036" points="276.8935,360.7913,272.7628,351.8506,273.1337,357.4952,267.489,357.8662,276.8935,360.7913" style="stroke: #A80036; stroke-width: 1.0;"/><text fill="#000000" font-family="sans-serif" font-size="13" lengthAdjust="spacingAndGlyphs" textLength="75" x="225.5" y="265.5669">depends on</text><!--MD5=[6b022255e4a714146cec30425f07a0c8]
link appserver to postgres--><path d="M734.0774,154.4377 C798.569,173.9555 909.0521,207.6876 1003.5,238 C1007.7381,239.3602 1012.1174,240.7819 1016.5185,242.2224 " fill="none" id="appserver-&gt;postgres" style="stroke: #A80036; stroke-width: 1.0; stroke-dasharray: 7.0,7.0;"/><polygon fill="#A80036" points="1021.2971,243.7908,1013.9933,237.1836,1016.5464,242.2315,1011.4985,244.7846,1021.2971,243.7908" style="stroke: #A80036; stroke-width: 1.0;"/><text fill="#000000" font-family="sans-serif" font-size="13" lengthAdjust="spacingAndGlyphs" textLength="75" x="907.5" y="204.0669">depends on</text><!--MD5=[87be7915fbe8017629744f91d50d757a]
link appserver to redis--><path d="M694.8486,161.0962 C717.5993,198.4661 754.7036,273.773 726.5,331 C720.3745,343.4292 709.7789,353.7561 698.7035,361.8916 " fill="none" id="appserver-&gt;redis" style="stroke: #A80036; stroke-width: 1.0; stroke-dasharray: 7.0,7.0;"/><polygon fill="#A80036" points="694.6088,364.7895,704.2658,362.8551,698.69,361.901,699.6442,356.3252,694.6088,364.7895" style="stroke: #A80036; stroke-width: 1.0;"/><text fill="#000000" font-family="sans-serif" font-size="13" lengthAdjust="spacingAndGlyphs" textLength="75" x="738.5" y="265.5669">depends on</text><!--MD5=[11b292e9f601a927ebbff414ca7f0e02]
link cache-invalidator to neo4j--><path d="M586.8833,284.0536 C563.7166,299.1048 531.7639,318.2562 501.5,331 C451.9906,351.8479 391.9422,366.7179 351.6759,375.3023 " fill="none" id="cache-invalidator-&gt;neo4j" style="stroke: #A80036; stroke-width: 1.0; stroke-dasharray: 7.0,7.0;"/><polygon fill="#A80036" points="346.3747,376.4206,356.0065,378.4768,351.267,375.3886,354.3553,370.6491,346.3747,376.4206" style="stroke: #A80036; stroke-width: 1.0;"/><text fill="#000000" font-family="sans-serif" font-size="13" lengthAdjust="spacingAndGlyphs" textLength="75" x="537.5" y="327.0669">depends on</text><!--MD5=[ce0447b25eee4dc7785833027a5ba3dc]
link cache-invalidator to redis--><path d="M627.4594,284.1354 C633.5835,304.4937 642.5167,334.1907 649.0496,355.908 " fill="none" id="cache-invalidator-&gt;redis" style="stroke: #A80036; stroke-width: 1.0; stroke-dasharray: 7.0,7.0;"/><polygon fill="#A80036" points="650.5718,360.9684,651.8094,351.1976,649.1314,356.1804,644.1486,353.5023,650.5718,360.9684" style="stroke: #A80036; stroke-width: 1.0;"/><text fill="#000000" font-family="sans-serif" font-size="13" lengthAdjust="spacingAndGlyphs" textLength="75" x="642.5" y="327.0669">depends on</text><!--MD5=[b612017463debff9578045eef886aec6]
link statistical-enrichment to neo4j--><path d="M336.7335,284.0641 C323.5327,291.5032 311.5063,301.2553 303.5,314 C295.8455,326.1847 295.9058,342.0558 298.1855,355.6044 " fill="none" id="statistical-enrichment-&gt;neo4j" style="stroke: #A80036; stroke-width: 1.0; stroke-dasharray: 7.0,7.0;"/><polygon fill="#A80036" points="299.1978,360.8631,301.4244,351.2692,298.2527,355.9532,293.5687,352.7815,299.1978,360.8631" style="stroke: #A80036; stroke-width: 1.0;"/><text fill="#000000" font-family="sans-serif" font-size="13" lengthAdjust="spacingAndGlyphs" textLength="75" x="304.5" y="327.0669">depends on</text><!--MD5=[e1ae5a4934660f259385e9f9d487ec50]
link statistical-enrichment to redis--><path d="M409.4369,284.1977 C408.177,299.3114 409.4013,318.4784 420.5,331 C445.8656,359.6177 554.2827,374.2903 615.3153,380.4116 " fill="none" id="statistical-enrichment-&gt;redis" style="stroke: #A80036; stroke-width: 1.0; stroke-dasharray: 7.0,7.0;"/><polygon fill="#A80036" points="620.3474,380.9077,611.7833,376.044,615.3715,380.4171,610.9984,384.0054,620.3474,380.9077" style="stroke: #A80036; stroke-width: 1.0;"/><text fill="#000000" font-family="sans-serif" font-size="13" lengthAdjust="spacingAndGlyphs" textLength="75" x="421.5" y="327.0669">depends on</text><!--MD5=[44d61e3cd4b551885bfc27fce60d21f2]
@startuml
skinparam componentStyle uml2
[appserver]
[cache-invalidator]
[elasticsearch]
[neo4j]
[pdfparser]
[postgres]
[redis]
[statistical-enrichment]
[webserver]
[appserver] - -> [pdfparser]
[appserver] - -> [statistical-enrichment]
[webserver] - -> [appserver]
[appserver] ..> [elasticsearch] : depends on
[appserver] ..> [neo4j] : depends on
[appserver] ..> [postgres] : depends on
[appserver] ..> [redis] : depends on
[cache-invalidator] ..> [neo4j] : depends on
[cache-invalidator] ..> [redis] : depends on
[statistical-enrichment] ..> [neo4j] : depends on
[statistical-enrichment] ..> [redis] : depends on

@enduml

PlantUML version 1.2020.06(Sun Apr 05 12:38:32 GMT 2020)
(GPL source distribution)
Java Runtime: OpenJDK Runtime Environment
JVM: OpenJDK 64-Bit Server VM
Java Version: 14-ea+33
Operating System: Linux
Default Encoding: UTF-8
Language: en
Country: US
--></g></svg>